<svg width="24" height="24" viewBox="0 0 24 24" fill="none" xmlns="http://www.w3.org/2000/svg">
<path d="M24 11.854C24 12.4062 23.5896 12.8627 23.0571 12.9349L22.9091 12.9449L3.73236 12.944L10.6603 19.8437C11.0873 20.2688 11.0888 20.9595 10.6637 21.3865C10.2772 21.7746 9.67123 21.8111 9.24347 21.4951L9.12089 21.3898L0.320892 12.6276C0.264614 12.5716 0.215733 12.5109 0.174246 12.4469C0.162529 12.4276 0.1506 12.4079 0.139292 12.3878C0.128891 12.3705 0.119493 12.3526 0.110626 12.3345C0.0983105 12.3082 0.086277 12.2809 0.0753536 12.2532C0.0664768 12.2318 0.0590649 12.2109 0.0523033 12.19C0.0442657 12.1639 0.0364571 12.1362 0.0297394 12.108C0.0247459 12.0884 0.020792 12.0694 0.0173416 12.0505C0.0124912 12.0222 0.00836182 11.9929 0.00541496 11.9633C0.00287056 11.9408 0.00133896 11.9184 0.000494003 11.896C0.000274658 11.8824 0 11.8682 0 11.854L0.000545502 11.8117C0.00138283 11.7903 0.00284386 11.7689 0.00493431 11.7476L0 11.854C0 11.7851 0.00637627 11.7178 0.0185699 11.6525C0.0213985 11.6369 0.0247688 11.6209 0.0284996 11.6049C0.0362492 11.5721 0.0452042 11.5404 0.0555172 11.5094C0.0605774 11.494 0.066473 11.4776 0.0727749 11.4612C0.0855236 11.4284 0.0993805 11.3971 0.114624 11.3667C0.121704 11.3523 0.129637 11.3373 0.137941 11.3225C0.151575 11.2982 0.165619 11.2752 0.18047 11.2528C0.190947 11.2369 0.202549 11.2203 0.214666 11.2041L0.224106 11.1915C0.253498 11.1531 0.285381 11.1167 0.319519 11.0826L0.320827 11.0816L9.12083 2.31792C9.54773 1.89278 10.2385 1.89421 10.6636 2.32112C11.0501 2.70922 11.0841 3.31534 10.7663 3.74176L10.6604 3.86389L3.73527 10.7622L22.9091 10.7631C23.5116 10.7631 24 11.2515 24 11.854Z" fill="#000"/>
</svg>
