<svg width="18" height="19" viewBox="0 0 18 19" fill="none" xmlns="http://www.w3.org/2000/svg">
<path d="M6.83653 1C6.73605 1.01494 6.64009 1.05181 6.55546 1.108C6.55546 1.108 5.67969 1.65908 4.73815 2.25515C3.79661 2.85054 2.74915 3.50685 2.50961 3.63977C2.49483 3.64618 2.48029 3.65311 2.46599 3.66054C1.59646 4.19708 1.41576 5.07354 1.38461 5.56508C1.38253 5.58792 1.38461 5.60662 1.38461 5.63085C1.37699 5.815 1.38461 5.93339 1.38461 5.93339V14.977C1.38461 16.291 2.91669 16.9231 4.37053 16.9231C4.85515 16.9231 5.33976 16.8448 5.75515 16.7064C6.03207 16.5679 6.23076 16.291 6.23076 16.0141V8.74485C6.23076 7.15254 6.57692 6.40485 7.61538 5.78177C7.8923 5.64331 10.7958 3.63908 10.7958 3.63908C10.9343 3.50062 11.0769 3.21954 11.0769 3.01185V2.94677C11.0769 2.66985 10.9385 2.458 10.7308 2.31954C10.5231 2.18108 10.2461 2.18108 10.0385 2.31954C9.96922 2.38877 5.74615 5.23208 4.84615 5.71669C3.94615 6.27054 3.10638 6.40416 2.89869 6.12723C2.8343 6.06285 2.77823 5.86554 2.76923 5.67308V5.62946C2.76992 5.44116 2.81838 5.08669 3.20192 4.85062C3.59099 4.63392 4.55676 4.01708 5.49553 3.42308C5.89223 3.17177 5.94138 3.14477 6.25222 2.94677C6.29314 3.1159 6.39625 3.26341 6.54102 3.35995C6.68579 3.45649 6.8616 3.49498 7.03347 3.46774C7.20533 3.44051 7.36063 3.34956 7.46847 3.21299C7.5763 3.07643 7.62875 2.90426 7.61538 2.73077V1.69231C7.61615 1.59363 7.59582 1.49593 7.55575 1.40575C7.51568 1.31557 7.45679 1.235 7.38304 1.16944C7.30928 1.10388 7.22236 1.05484 7.12811 1.02562C7.03385 0.996397 6.93444 0.987662 6.83653 1ZM12.375 3.42308C12.2649 3.44139 12.1609 3.48604 12.0718 3.55323C12.0718 3.55323 8.58669 5.89808 7.98299 6.30031C7.97568 6.30753 7.96852 6.31492 7.96153 6.32246C7.4603 6.69839 7.1633 7.14562 7.03107 7.55477C6.95698 7.78559 6.92051 8.02683 6.92307 8.26923V8.48592C6.92207 8.50737 6.92207 8.52886 6.92307 8.55031V16.9231C6.92307 18.2385 8.43784 19 9.82245 19C10.4455 19 11.0077 18.8657 11.4231 18.5888C12.2538 18.1042 16.2692 14.9763 16.2692 14.9763C16.4769 14.8378 16.6154 14.6426 16.6154 14.4349V5.43492C16.6154 5.08877 16.4811 4.88108 16.2041 4.74262C15.9965 4.60416 15.6551 4.66923 15.4475 4.80769C14.3398 5.63846 11.358 7.984 10.6657 8.39939C9.69646 8.95323 8.7833 9.09169 8.43715 8.74554C8.29869 8.60708 8.30769 8.47692 8.30769 8.26923C8.31184 8.15016 8.32499 8.04769 8.3513 7.966C8.39007 7.84554 8.46899 7.69739 8.76184 7.46892C8.77569 7.45785 8.76876 7.45854 8.7833 7.44746C9.28384 7.11308 10.8145 6.06977 11.8128 5.39131C11.8694 5.54304 11.9774 5.67015 12.1179 5.75052C12.2585 5.83089 12.4228 5.85944 12.5823 5.8312C12.7417 5.80297 12.8862 5.71974 12.9906 5.59598C13.0951 5.47222 13.1528 5.31577 13.1538 5.15385V4.11539C13.1546 4.01671 13.1343 3.919 13.0942 3.82883C13.0541 3.73865 12.9953 3.65808 12.9215 3.59252C12.8477 3.52696 12.7608 3.47792 12.6666 3.4487C12.5723 3.41947 12.4729 3.41074 12.375 3.42308ZM15.2308 8.48592V9.87054L11.7692 12.5525V11.1679L15.2308 8.48592Z" fill="white"/>
</svg>
