<svg width="24" height="25" viewBox="0 0 24 25" fill="none" xmlns="http://www.w3.org/2000/svg">
<path d="M9.11536 0.999996C8.98138 1.01992 8.85343 1.06908 8.74059 1.144C8.74059 1.144 7.5729 1.87877 6.31751 2.67353C5.06213 3.46738 3.66551 4.34246 3.34613 4.51969C3.32643 4.52824 3.30703 4.53748 3.28797 4.54738C2.12859 5.26277 1.88767 6.43138 1.84613 7.08677C1.84336 7.11723 1.84613 7.14215 1.84613 7.17446C1.83597 7.42 1.84613 7.57784 1.84613 7.57784V19.636C1.84613 21.388 3.8889 22.2308 5.82736 22.2308C6.47351 22.2308 7.11966 22.1265 7.67351 21.9418C8.04274 21.7572 8.30766 21.388 8.30766 21.0188V11.3265C8.30766 9.20338 8.7692 8.20646 10.1538 7.37569C10.523 7.19107 14.3944 4.51877 14.3944 4.51877C14.579 4.33415 14.7692 3.95938 14.7692 3.68246V3.59569C14.7692 3.22646 14.5846 2.944 14.3077 2.75938C14.0307 2.57477 13.6615 2.57477 13.3846 2.75938C13.2923 2.85169 7.66151 6.64277 6.46151 7.28892C5.26151 8.02738 4.14182 8.20554 3.8649 7.8363C3.77905 7.75046 3.70428 7.48738 3.69228 7.23077V7.17261C3.6932 6.92154 3.75782 6.44892 4.2692 6.13415C4.78797 5.84523 6.07566 5.02277 7.32736 4.23077C7.85628 3.89569 7.92182 3.85969 8.33628 3.59569C8.39084 3.82119 8.52831 4.01788 8.72134 4.1466C8.91437 4.27532 9.14879 4.32663 9.37793 4.29032C9.60708 4.25401 9.81416 4.13274 9.95793 3.95065C10.1017 3.76856 10.1716 3.53901 10.1538 3.30769V1.92307C10.1549 1.7915 10.1277 1.66123 10.0743 1.54099C10.0209 1.42075 9.94237 1.31333 9.84403 1.22591C9.74569 1.1385 9.6298 1.07312 9.50412 1.03416C9.37845 0.995192 9.2459 0.983545 9.11536 0.999996ZM16.5 4.23077C16.3532 4.25518 16.2145 4.31472 16.0957 4.4043C16.0957 4.4043 11.4489 7.53077 10.644 8.06707C10.6342 8.07671 10.6247 8.08656 10.6154 8.09661C9.94705 8.59784 9.55105 9.19415 9.37474 9.73969C9.27595 10.0474 9.22733 10.3691 9.23074 10.6923V10.9812C9.22941 11.0098 9.22941 11.0385 9.23074 11.0671V22.2308C9.23074 23.9846 11.2504 25 13.0966 25C13.9274 25 14.6769 24.8209 15.2307 24.4517C16.3384 23.8055 21.6923 19.6351 21.6923 19.6351C21.9692 19.4505 22.1538 19.1902 22.1538 18.9132V6.91323C22.1538 6.45169 21.9747 6.17477 21.6055 5.99015C21.3286 5.80554 20.8735 5.8923 20.5966 6.07692C19.1197 7.18461 15.144 10.312 14.2209 10.8658C12.9286 11.6043 11.711 11.7889 11.2495 11.3274C11.0649 11.1428 11.0769 10.9692 11.0769 10.6923C11.0824 10.5335 11.1 10.3969 11.135 10.288C11.1867 10.1274 11.292 9.92984 11.6824 9.62523C11.7009 9.61046 11.6917 9.61138 11.711 9.59661C12.3784 9.15077 14.4194 7.75969 15.7504 6.85507C15.8258 7.05738 15.9698 7.22686 16.1572 7.33402C16.3447 7.44118 16.5637 7.47925 16.7763 7.4416C16.9889 7.40395 17.1816 7.29298 17.3208 7.12797C17.4601 6.96296 17.5371 6.75436 17.5384 6.53846V5.15384C17.5395 5.02227 17.5124 4.892 17.4589 4.77176C17.4055 4.65152 17.327 4.5441 17.2286 4.45668C17.1303 4.36927 17.0144 4.30389 16.8887 4.26493C16.7631 4.22596 16.6305 4.21431 16.5 4.23077ZM20.3077 10.9812V12.8274L15.6923 16.4034V14.5572L20.3077 10.9812Z" fill="#000"/>
</svg>
