<svg width="24" height="24" viewBox="0 0 24 24" fill="none" xmlns="http://www.w3.org/2000/svg">
<g clip-path="url(#clip0_336_4611)">
<path d="M16.7933 13.6C16.9848 13.0883 17.0819 12.5462 17.08 12C17.08 10.787 16.5981 9.6238 15.7405 8.76613C14.8828 7.90847 13.7196 7.42664 12.5066 7.42664C11.9671 7.42727 11.432 7.52435 10.9266 7.7133L12 8.81997C12.1631 8.79387 12.3281 8.78049 12.4933 8.77997C13.3509 8.77818 14.1744 9.1158 14.784 9.7191C15.3935 10.3224 15.7396 11.1424 15.7466 12C15.7461 12.1652 15.7327 12.3301 15.7066 12.4933L16.7933 13.6Z" fill="#000"/>
<path d="M22.86 11.6867C20.6133 7.53335 16.6733 5.02002 12.3133 5.02002C11.1262 5.02281 9.94712 5.21408 8.82001 5.58669L9.89334 6.66669C10.6839 6.46237 11.4968 6.35712 12.3133 6.35335C16.0667 6.35335 19.48 8.44669 21.5133 11.9734C20.7674 13.2818 19.7786 14.4357 18.6 15.3734L19.5467 16.32C20.9107 15.2196 22.0436 13.8601 22.88 12.32L23.0533 12L22.86 11.6867Z" fill="#000"/>
<path d="M3.24667 3.85332L6.22 6.82665C4.34062 8.03673 2.8046 9.7105 1.76 11.6867L1.58667 12L1.76 12.32C4.00667 16.4733 7.94667 18.9867 12.3067 18.9867C14.0084 18.9863 15.6881 18.6011 17.22 17.86L20.5533 21.1933L21.72 20.1933L4.38667 2.85999L3.24667 3.85332ZM9.74667 10.3533L14.18 14.7867C13.6791 15.0967 13.1024 15.2628 12.5133 15.2667C12.0853 15.2667 11.6615 15.182 11.2663 15.0176C10.871 14.8532 10.5122 14.6123 10.2105 14.3087C9.90875 14.0051 9.67002 13.6448 9.50804 13.2486C9.34606 12.8524 9.26403 12.428 9.26667 12C9.27418 11.4177 9.44012 10.8484 9.74667 10.3533ZM8.78 9.38665C8.15629 10.2663 7.86395 11.3382 7.95475 12.4126C8.04554 13.4871 8.51361 14.4948 9.27607 15.2572C10.0385 16.0197 11.0462 16.4878 12.1207 16.5786C13.1951 16.6694 14.2671 16.377 15.1467 15.7533L16.2133 16.82C14.9785 17.3478 13.6496 17.62 12.3067 17.62C8.55334 17.62 5.14 15.5267 3.10667 12C4.08247 10.2721 5.48782 8.82545 7.18667 7.79999L8.78 9.38665Z" fill="#000"/>
</g>
<defs>
<clipPath id="clip0_336_4611">
<rect width="24" height="24" fill="white"/>
</clipPath>
</defs>
</svg>
