<svg width="20" height="20" viewBox="0 0 20 20" fill="none" xmlns="http://www.w3.org/2000/svg">
<path fill-rule="evenodd" clip-rule="evenodd" d="M13.2082 2.08393C13.734 2.08393 14.259 2.1581 14.7582 2.3256C17.834 3.3256 18.9423 6.7006 18.0165 9.6506C17.4915 11.1581 16.6332 12.5339 15.509 13.6581C13.8998 15.2164 12.134 16.5998 10.2332 17.7914L10.0248 17.9173L9.80817 17.7831C7.90067 16.5998 6.12484 15.2164 4.50067 13.6498C3.384 12.5256 2.52484 11.1581 1.9915 9.6506C1.04984 6.7006 2.15817 3.3256 5.26734 2.3081C5.509 2.22477 5.75817 2.16643 6.00817 2.13393H6.10817C6.34234 2.09977 6.57484 2.08393 6.80817 2.08393H6.89984C7.42484 2.09977 7.93317 2.19143 8.42567 2.35893H8.47484C8.50817 2.37477 8.53317 2.39227 8.54984 2.4081C8.734 2.46727 8.90817 2.53393 9.07484 2.6256L9.3915 2.76727C9.46802 2.80808 9.55391 2.87043 9.62813 2.92433C9.67517 2.95847 9.71752 2.98922 9.74984 3.00893C9.76344 3.01696 9.77726 3.02503 9.7912 3.03316C9.86265 3.07487 9.93708 3.11832 9.99984 3.16643C10.9257 2.45893 12.0498 2.0756 13.2082 2.08393ZM15.4248 8.08393C15.7665 8.07477 16.0582 7.8006 16.0832 7.44977V7.3506C16.1082 6.1831 15.4007 5.1256 14.3248 4.71727C13.9832 4.59977 13.6082 4.78393 13.4832 5.13393C13.3665 5.48393 13.5498 5.86727 13.8998 5.99143C14.434 6.19143 14.7915 6.71727 14.7915 7.29977V7.3256C14.7757 7.51643 14.8332 7.7006 14.9498 7.84227C15.0665 7.98393 15.2415 8.06643 15.4248 8.08393Z" fill="#000"/>
</svg>
