<svg width="24" height="24" viewBox="0 0 24 24" fill="none" xmlns="http://www.w3.org/2000/svg">
<path d="M21.0586 12.1595C21.0586 11.4161 20.9969 10.8736 20.8634 10.311H12.1792V13.6663H17.2766C17.1739 14.5002 16.6189 15.7559 15.3856 16.5997L15.3684 16.712L18.1141 18.7913L18.3044 18.8099C20.0514 17.2326 21.0586 14.912 21.0586 12.1595Z" fill="#4285F4"/>
<path d="M12.1791 21.0002C14.6764 21.0002 16.7729 20.1965 18.3042 18.8102L15.3855 16.6C14.6045 17.1325 13.5562 17.5042 12.1791 17.5042C9.73315 17.5042 7.65719 15.927 6.91716 13.7471L6.80869 13.7561L3.9536 15.9159L3.91626 16.0174C5.43726 18.9709 8.56151 21.0002 12.1791 21.0002Z" fill="#34A853"/>
<path d="M6.91717 13.7469C6.72191 13.1844 6.60891 12.5816 6.60891 11.9588C6.60891 11.3359 6.72191 10.7331 6.9069 10.1706L6.90173 10.0508L4.01085 7.8562L3.91627 7.90018C3.28939 9.12579 2.92969 10.5021 2.92969 11.9588C2.92969 13.4154 3.28939 14.7916 3.91627 16.0173L6.91717 13.7469Z" fill="#FBBC05"/>
<path d="M12.1791 6.41343C13.9159 6.41343 15.0875 7.14677 15.7555 7.75961L18.3659 5.26822C16.7627 3.81157 14.6764 2.91748 12.1791 2.91748C8.56151 2.91748 5.43726 4.94673 3.91626 7.9002L6.90689 10.1706C7.65719 7.99065 9.73315 6.41343 12.1791 6.41343Z" fill="#EB4335"/>
</svg>
