<svg width="24" height="20" viewBox="0 0 24 20" fill="none" xmlns="http://www.w3.org/2000/svg">
<path d="M24 10C24 10.3819 23.8483 10.7482 23.5782 11.0182C23.3082 11.2883 22.9419 11.44 22.56 11.44H1.44C1.05809 11.44 0.691819 11.2883 0.421766 11.0182C0.151714 10.7482 0 10.3819 0 10C0 9.61809 0.151714 9.25182 0.421766 8.98177C0.691819 8.71172 1.05809 8.56 1.44 8.56H22.56C22.9419 8.56 23.3082 8.71172 23.5782 8.98177C23.8483 9.25182 24 9.61809 24 10ZM1.44 3.76H22.56C22.9419 3.76 23.3082 3.60829 23.5782 3.33824C23.8483 3.06819 24 2.70192 24 2.32C24 1.93809 23.8483 1.57182 23.5782 1.30177C23.3082 1.03172 22.9419 0.880005 22.56 0.880005H1.44C1.05809 0.880005 0.691819 1.03172 0.421766 1.30177C0.151714 1.57182 0 1.93809 0 2.32C0 2.70192 0.151714 3.06819 0.421766 3.33824C0.691819 3.60829 1.05809 3.76 1.44 3.76ZM22.56 16.24H1.44C1.05809 16.24 0.691819 16.3917 0.421766 16.6618C0.151714 16.9318 0 17.2981 0 17.68C0 18.0619 0.151714 18.4282 0.421766 18.6982C0.691819 18.9683 1.05809 19.12 1.44 19.12H22.56C22.9419 19.12 23.3082 18.9683 23.5782 18.6982C23.8483 18.4282 24 18.0619 24 17.68C24 17.2981 23.8483 16.9318 23.5782 16.6618C23.3082 16.3917 22.9419 16.24 22.56 16.24Z" fill="#000"/>
</svg>
