<svg width="20" height="20" viewBox="0 0 20 20" fill="none" xmlns="http://www.w3.org/2000/svg">
<path fill-rule="evenodd" clip-rule="evenodd" d="M6.74797 9.99998C6.74797 11.7778 8.20326 13.2242 10 13.2242C11.7886 13.2242 13.2439 11.7778 13.2439 9.99998C13.2439 8.21412 11.7886 6.76766 10 6.76766C8.20326 6.76766 6.74797 8.21412 6.74797 9.99998ZM14.7805 5.03836C16.2033 6.13735 17.4146 7.74543 18.2846 9.75756C18.3496 9.91109 18.3496 10.0889 18.2846 10.2343C16.5447 14.2586 13.4472 16.6666 10 16.6666H9.99188C6.55285 16.6666 3.45529 14.2586 1.71545 10.2343C1.65041 10.0889 1.65041 9.91109 1.71545 9.75756C3.45529 5.73331 6.55285 3.33331 9.99188 3.33331H10C11.7236 3.33331 13.3577 3.93129 14.7805 5.03836ZM10.001 12.0103C11.1148 12.0103 12.0254 11.1053 12.0254 9.9982C12.0254 8.88305 11.1148 7.978 10.001 7.978C9.90342 7.978 9.80586 7.98608 9.71643 8.00224C9.68391 8.89113 8.9522 9.60224 8.04976 9.60224H8.00911C7.98472 9.73154 7.96846 9.86083 7.96846 9.9982C7.96846 11.1053 8.87903 12.0103 10.001 12.0103Z" fill="#000"/>
</svg>
