<svg width="20" height="20" viewBox="0 0 20 20" fill="none" xmlns="http://www.w3.org/2000/svg">
<path d="M7.61231 17.3111V14.763C7.61231 14.1126 8.14347 13.5853 8.79869 13.5853H11.1938C11.5085 13.5853 11.8102 13.7094 12.0327 13.9302C12.2552 14.1511 12.3802 14.4507 12.3802 14.763V17.3111C12.3782 17.5816 12.485 17.8416 12.677 18.0335C12.8689 18.2254 13.13 18.3334 13.4024 18.3333H15.0365C15.7997 18.3353 16.5323 18.0357 17.0726 17.5007C17.613 16.9657 17.9167 16.2392 17.9167 15.4815V8.2224C17.9166 7.6104 17.6434 7.02989 17.1705 6.63724L11.6117 2.22991C10.6447 1.45716 9.25926 1.48211 8.32115 2.28917L2.88917 6.63724C2.39395 7.01831 2.09796 7.60055 2.08333 8.2224V15.4741C2.08333 17.0532 3.37281 18.3333 4.96347 18.3333H6.56024C7.12602 18.3334 7.58583 17.8802 7.58993 17.3185L7.61231 17.3111Z" fill="#000"/>
</svg>
