<svg width="20" height="20" viewBox="0 0 20 20" fill="none" xmlns="http://www.w3.org/2000/svg">
<path fill-rule="evenodd" clip-rule="evenodd" d="M10.128 13.8667L12.496 11.4751C12.7352 11.2251 12.7352 10.8334 12.4877 10.5917C12.2484 10.3501 11.8606 10.3501 11.6214 10.5917L10.3095 11.9251V7.90841C10.3095 7.55841 10.0372 7.28341 9.69893 7.28341C9.36064 7.28341 9.08011 7.55841 9.08011 7.90841V11.9251L7.76823 10.5917C7.52896 10.3501 7.14117 10.3501 6.9019 10.5917C6.66262 10.8334 6.66262 11.2251 6.9019 11.4751L9.26163 13.8667C9.31939 13.9251 9.38539 13.9667 9.45965 14.0001C9.53391 14.0334 9.61642 14.0501 9.69893 14.0501C9.78143 14.0501 9.85569 14.0334 9.92995 14.0001C10.0042 13.9667 10.0702 13.9251 10.128 13.8667ZM16.1069 7.52142C16.3008 7.51919 16.512 7.51675 16.7039 7.51675C16.9184 7.51675 17.0834 7.68341 17.0834 7.89175V14.5917C17.0834 16.6584 15.4167 18.3334 13.3705 18.3334H6.81114C4.65767 18.3334 2.91675 16.5751 2.91675 14.4084V5.42508C2.91675 3.35841 4.57516 1.66675 6.63787 1.66675H11.0438C11.2501 1.66675 11.4233 1.84175 11.4233 2.05008V4.73341C11.4233 6.25841 12.661 7.50841 14.1791 7.51675C14.5278 7.51675 14.8399 7.51939 15.1122 7.5217C15.3232 7.52349 15.5105 7.52508 15.6725 7.52508C15.79 7.52508 15.9422 7.52332 16.1069 7.52142ZM16.3371 6.30516C15.6597 6.30766 14.8602 6.30517 14.2851 6.29933C13.3726 6.29933 12.621 5.54016 12.621 4.6185V2.42183C12.621 2.06266 13.0525 1.88433 13.2983 2.1435C13.934 2.81048 14.9074 3.83282 15.7297 4.6966C16.0623 5.04587 16.3701 5.36922 16.621 5.63266C16.8619 5.88516 16.6853 6.30433 16.3371 6.30516Z" fill="#000"/>
</svg>
