<svg width="24" height="24" viewBox="0 0 24 24" fill="none" xmlns="http://www.w3.org/2000/svg">
<path fill-rule="evenodd" clip-rule="evenodd" d="M17.2008 0C21.2676 0 24 2.8536 24 7.0992V16.9008C24 21.1464 21.2676 24 17.1984 24H6.7968C2.7312 24 0 21.1464 0 16.9008V7.0992C0 2.8536 2.7312 0 6.7968 0H17.2008ZM17.2008 1.8H6.7968C3.762 1.8 1.8 3.8796 1.8 7.0992V16.9008C1.8 20.1204 3.762 22.2 6.7968 22.2H17.1984C20.2368 22.2 22.2 20.1204 22.2 16.9008V7.0992C22.2 3.8796 20.2368 1.8 17.2008 1.8ZM8.20416 8.87808C9.61451 8.87906 10.8065 9.81601 11.1939 11.0987L18.0116 11.0994C18.5084 11.0994 18.9116 11.5026 18.9116 11.9994V14.223C18.9116 14.7198 18.5084 15.123 18.0116 15.123C17.5148 15.123 17.1116 14.7198 17.1116 14.223V12.8994L15.5172 12.8988L15.5178 14.223C15.5178 14.7198 15.1146 15.123 14.6178 15.123C14.121 15.123 13.7178 14.7198 13.7178 14.223L13.7172 12.8988L11.1945 12.9C10.8073 14.1841 9.61343 15.1229 8.20416 15.1229C6.48216 15.1229 5.08176 13.7213 5.08176 12.0005C5.08176 10.2785 6.48216 8.87808 8.20416 8.87808ZM8.20656 10.6781C7.47456 10.6781 6.88176 11.2709 6.88176 12.0005C6.88176 12.7301 7.47456 13.3229 8.20416 13.3229C8.93256 13.3229 9.52656 12.7301 9.52656 12.0005C9.52656 11.2721 8.93376 10.6793 8.20656 10.6781Z" fill="#000"/>
</svg>
