<svg width="14" height="15" viewBox="0 0 14 15" fill="none" xmlns="http://www.w3.org/2000/svg">
<path d="M12.8243 6.75517L10.3579 8.90767L11.0967 12.1124C11.1358 12.2799 11.1246 12.4552 11.0646 12.6165C11.0046 12.7777 10.8984 12.9176 10.7593 13.0188C10.6202 13.12 10.4543 13.178 10.2824 13.1854C10.1105 13.1928 9.9403 13.1494 9.79295 13.0606L6.99787 11.3653L4.20881 13.0606C4.06147 13.1494 3.89122 13.1928 3.71934 13.1854C3.54747 13.178 3.3816 13.12 3.24248 13.0188C3.10336 12.9176 2.99715 12.7777 2.93713 12.6165C2.87712 12.4552 2.86596 12.2799 2.90506 12.1124L3.6428 8.91095L1.17584 6.75517C1.04536 6.64264 0.951012 6.49408 0.904623 6.32814C0.858233 6.1622 0.86187 5.98625 0.915077 5.82237C0.968284 5.65849 1.06869 5.51396 1.20371 5.40691C1.33873 5.29987 1.50235 5.23507 1.67405 5.22064L4.92576 4.939L6.19506 1.9115C6.26134 1.75264 6.37315 1.61694 6.5164 1.5215C6.65964 1.42605 6.82793 1.37512 7.00006 1.37512C7.17219 1.37512 7.34048 1.42605 7.48373 1.5215C7.62697 1.61694 7.73878 1.75264 7.80506 1.9115L9.07819 4.939L12.3288 5.22064C12.5005 5.23507 12.6641 5.29987 12.7991 5.40691C12.9342 5.51396 13.0346 5.65849 13.0878 5.82237C13.141 5.98625 13.1446 6.1622 13.0982 6.32814C13.0518 6.49408 12.9575 6.64264 12.827 6.75517H12.8243Z" fill="#FFC700"/>
</svg>
