<svg width="150" height="150" viewBox="0 0 150 150" fill="none" xmlns="http://www.w3.org/2000/svg">
<rect width="150" height="150" rx="75" fill="#185DCF"/>
<g clip-path="url(#clip0_57_4048)">
<path d="M56.095 41.3403L58.2328 74.0743C58.3534 75.9211 58.7701 77.6847 59.4338 79.3134C62.0801 85.8377 71.9553 53.0549 74.1107 49.2095C84.1369 32.1772 78.9184 56.6265 81.7692 73.2119C82.1895 75.6574 89.9675 92.4495 94.6984 92.1405C103.705 91.5523 110.768 84.5584 111.746 75.8969C111.421 80.0113 110.418 83.9599 108.829 87.6087C108.662 87.9851 108.495 88.3615 108.309 88.7391C102.759 100.431 91.2038 108.86 77.4023 109.762C71.3705 110.156 65.5705 109.063 60.3706 106.808C53.2991 103.734 47.3288 98.496 43.3612 91.8843C41.3111 88.4732 39.803 84.6886 38.9455 80.6514C38.828 80.1109 38.7286 79.5692 38.6384 79.0269L38.1607 71.7122C38.5879 58.9479 45.6146 47.6255 56.095 41.3403Z" fill="white"/>
<path d="M38.7453 80.6645L38.9455 80.6514C39.803 84.6886 41.3111 88.4732 43.3612 91.8843C47.3288 98.496 53.2991 103.734 60.3706 106.808C65.5705 109.063 71.3705 110.156 77.4023 109.762L40.8018 112.152L38.7453 80.6645Z" fill="url(#paint0_linear_57_4048)"/>
<path d="M109.834 42.4081L111.848 73.2497C111.862 73.331 111.858 73.4044 111.854 73.4869C111.851 74.282 111.811 75.0703 111.753 75.8508C111.754 75.869 111.754 75.8781 111.747 75.8968C110.768 84.5583 103.705 91.5523 94.6986 92.1405C89.9677 92.4495 85.5474 90.9382 82.1075 88.2118C86.6207 86.1079 89.9939 82.0777 91.2582 77.2349C91.7045 75.5338 91.8882 73.731 91.7676 71.8841C91.7504 71.6203 91.7246 71.3661 91.6983 71.1029C91.615 70.3865 91.4953 69.6726 91.3227 68.9894C91.2416 68.4465 91.1866 67.8837 91.1497 67.3196C90.8734 63.0891 91.7146 59.0415 93.4273 55.4668C95.0986 51.9588 97.6129 48.9075 100.714 46.5943C103.372 44.6117 106.456 43.1586 109.834 42.4081Z" fill="url(#paint1_linear_57_4048)"/>
</g>
<defs>
<linearGradient id="paint0_linear_57_4048" x1="39.7735" y1="96.4083" x2="76.3741" y2="94.018" gradientUnits="userSpaceOnUse">
<stop stop-color="white" stop-opacity="0"/>
<stop offset="1" stop-color="#82A3FF"/>
</linearGradient>
<linearGradient id="paint1_linear_57_4048" x1="80.8316" y1="68.6742" x2="111.422" y2="66.6763" gradientUnits="userSpaceOnUse">
<stop stop-color="white" stop-opacity="0"/>
<stop offset="1" stop-color="#82A3FF"/>
</linearGradient>
<clipPath id="clip0_57_4048">
<rect width="69.6646" height="73.4483" fill="white" transform="translate(40.8018 112.152) rotate(-93.7366)"/>
</clipPath>
</defs>
</svg>
